<svg xmlns="http://www.w3.org/2000/svg" xmlns:xlink="http://www.w3.org/1999/xlink" width="500" zoomAndPan="magnify" viewBox="0 0 375 374.999991" height="500" preserveAspectRatio="xMidYMid meet" version="1.0"><defs><g/></defs><g fill="#000000" fill-opacity="1"><g transform="translate(164.109763, 255.632107)"><g><path d="M 78.449219 -1.757812 L 44.496094 -43.46875 C 60.15625 -46.105469 68.351562 -52.984375 68.351562 -63.230469 C 68.351562 -77.71875 54.445312 -84.011719 31.761719 -84.011719 L 4.976562 -84.011719 L 4.976562 -82.839844 L 13.464844 -82.253906 L 13.464844 -1.757812 L 4.976562 -1.171875 L 4.976562 0 L 35.417969 0 L 35.417969 -1.171875 L 24.589844 -1.757812 L 24.589844 -42.445312 L 31.90625 -42.445312 L 64.984375 0 L 85.914062 0 L 85.914062 -1.171875 Z M 24.589844 -82.253906 L 31.761719 -82.253906 C 48.445312 -82.253906 55.617188 -76.253906 55.617188 -63.230469 C 55.617188 -50.203125 48.445312 -44.203125 31.761719 -44.203125 L 24.589844 -44.203125 Z M 24.589844 -82.253906 "/></g></g></g><g fill="#000000" fill-opacity="1"><g transform="translate(140.51037, 276.182852)"><g><path d="M 8.117188 -1.273438 C 7.316406 -0.785156 6.394531 -0.503906 5.4375 -0.503906 C 3.1875 -0.503906 1.777344 -2.074219 1.777344 -4.511719 C 1.777344 -7.089844 3.207031 -8.746094 5.382812 -8.746094 C 6.0625 -8.746094 6.707031 -8.640625 7.109375 -8.46875 L 7.109375 -6.410156 L 7.246094 -6.394531 C 7.457031 -6.394531 7.597656 -6.480469 7.632812 -6.761719 L 7.859375 -9.007812 C 7.265625 -9.25 6.394531 -9.40625 5.4375 -9.40625 C 2.664062 -9.40625 0.800781 -7.472656 0.800781 -4.441406 C 0.800781 -1.5 2.542969 0.175781 5.246094 0.175781 C 6.132812 0.175781 7.054688 -0.0507812 7.664062 -0.382812 L 8.207031 -1.148438 Z M 8.117188 -1.273438 "/></g></g></g><g fill="#000000" fill-opacity="1"><g transform="translate(151.256139, 276.182852)"><g><path d="M 3.675781 0.175781 C 5.539062 0.175781 6.761719 -1.203125 6.761719 -3.292969 C 6.761719 -5.261719 5.644531 -6.535156 3.695312 -6.535156 C 1.828125 -6.535156 0.59375 -5.15625 0.59375 -3.066406 C 0.59375 -1.011719 1.8125 0.175781 3.675781 0.175781 Z M 3.675781 -0.402344 C 2.335938 -0.402344 1.464844 -1.480469 1.464844 -3.152344 C 1.464844 -4.859375 2.335938 -5.957031 3.695312 -5.957031 C 5.019531 -5.957031 5.890625 -4.859375 5.890625 -3.171875 C 5.890625 -1.480469 5 -0.402344 3.675781 -0.402344 Z M 3.675781 -0.402344 "/></g></g></g><g fill="#000000" fill-opacity="1"><g transform="translate(160.869995, 276.182852)"><g><path d="M 2.910156 -3.640625 C 1.917969 -4.042969 1.566406 -4.304688 1.566406 -4.84375 C 1.566406 -5.558594 2.160156 -5.992188 3.171875 -5.992188 C 3.570312 -5.992188 4.007812 -5.890625 4.390625 -5.714844 L 4.390625 -4.582031 L 4.496094 -4.566406 C 4.703125 -4.566406 4.792969 -4.632812 4.824219 -4.824219 L 5.035156 -6.183594 C 4.597656 -6.359375 3.902344 -6.535156 3.171875 -6.535156 C 1.828125 -6.535156 0.820312 -5.835938 0.820312 -4.6875 C 0.820312 -3.726562 1.429688 -3.398438 2.578125 -2.925781 L 3.101562 -2.71875 C 4.199219 -2.28125 4.546875 -1.933594 4.546875 -1.480469 C 4.546875 -0.765625 4.007812 -0.367188 3.050781 -0.367188 C 2.492188 -0.367188 1.757812 -0.558594 1.308594 -0.800781 L 1.308594 -2.144531 L 1.203125 -2.160156 C 1.011719 -2.160156 0.886719 -2.074219 0.855469 -1.847656 L 0.644531 -0.367188 C 1.253906 -0.015625 2.28125 0.15625 2.996094 0.15625 C 4.390625 0.15625 5.3125 -0.523438 5.3125 -1.601562 C 5.3125 -2.421875 4.914062 -2.839844 3.433594 -3.433594 Z M 2.910156 -3.640625 "/></g></g></g><g fill="#000000" fill-opacity="1"><g transform="translate(169.038486, 276.182852)"><g><path d="M 11.011719 -4.441406 C 11.011719 -5.855469 10.175781 -6.535156 9.023438 -6.535156 C 8.308594 -6.535156 7.597656 -6.308594 7.160156 -6.0625 L 6.621094 -5.347656 C 6.339844 -6.148438 5.664062 -6.535156 4.757812 -6.535156 C 4.007812 -6.535156 3.414062 -6.308594 2.980469 -6.0625 L 2.507812 -5.453125 L 2.507812 -6.445312 L 0.574219 -6.132812 C 0.367188 -6.097656 0.277344 -6.011719 0.277344 -5.820312 L 0.296875 -5.714844 L 1.671875 -5.714844 L 1.671875 -0.558594 L 0.714844 -0.402344 C 0.523438 -0.367188 0.4375 -0.296875 0.4375 -0.105469 L 0.453125 0 L 3.433594 0 C 3.640625 0 3.695312 -0.0507812 3.746094 -0.277344 L 3.78125 -0.4375 L 2.507812 -0.402344 L 2.507812 -5.277344 C 3.082031 -5.644531 3.796875 -5.855469 4.53125 -5.855469 C 5.347656 -5.855469 5.921875 -5.417969 5.921875 -4.285156 L 5.921875 -0.558594 L 4.984375 -0.402344 C 4.808594 -0.367188 4.703125 -0.296875 4.703125 -0.105469 L 4.722656 0 L 7.664062 0 C 7.875 0 7.925781 -0.0507812 7.980469 -0.277344 L 8.015625 -0.4375 L 6.761719 -0.402344 L 6.761719 -4.40625 C 6.761719 -4.703125 6.726562 -4.964844 6.65625 -5.210938 C 7.28125 -5.628906 8.050781 -5.855469 8.78125 -5.855469 C 9.601562 -5.855469 10.175781 -5.417969 10.175781 -4.285156 L 10.175781 -0.558594 L 9.234375 -0.402344 C 9.042969 -0.367188 8.957031 -0.296875 8.957031 -0.105469 L 8.972656 0 L 11.96875 0 C 12.179688 0 12.230469 -0.0507812 12.28125 -0.277344 L 12.316406 -0.4375 L 11.011719 -0.402344 Z M 11.011719 -4.441406 "/></g></g></g><g fill="#000000" fill-opacity="1"><g transform="translate(183.702389, 276.182852)"><g><path d="M 5.992188 -3.257812 C 6.011719 -3.449219 6.027344 -3.710938 6.027344 -3.921875 C 6.027344 -5.503906 5.15625 -6.535156 3.570312 -6.535156 C 1.828125 -6.535156 0.59375 -5.105469 0.59375 -3.015625 C 0.59375 -1.0625 1.726562 0.175781 3.605469 0.175781 C 4.269531 0.175781 4.894531 0.0507812 5.261719 -0.121094 L 5.765625 -0.820312 L 5.714844 -0.886719 C 5.175781 -0.609375 4.460938 -0.453125 3.867188 -0.453125 C 2.335938 -0.453125 1.445312 -1.480469 1.445312 -3.101562 L 1.445312 -3.257812 Z M 3.519531 -5.957031 C 4.652344 -5.957031 5.210938 -5.121094 5.210938 -3.886719 L 5.210938 -3.851562 L 1.480469 -3.695312 C 1.636719 -5.085938 2.386719 -5.957031 3.519531 -5.957031 Z M 3.519531 -5.957031 "/></g></g></g><g fill="#000000" fill-opacity="1"><g transform="translate(192.689337, 276.182852)"><g><path d="M 4.632812 -0.785156 C 4.148438 -0.539062 3.660156 -0.4375 3.257812 -0.4375 C 2.542969 -0.4375 2.160156 -0.75 2.160156 -1.65625 L 2.160156 -5.714844 L 4.597656 -5.714844 L 4.597656 -6.273438 L 2.160156 -6.273438 L 2.160156 -7.824219 L 1.847656 -7.824219 L 1.324219 -6.273438 L 0.367188 -6.132812 C 0.175781 -6.097656 0.0703125 -6.011719 0.0703125 -5.835938 L 0.0859375 -5.714844 L 1.324219 -5.714844 L 1.324219 -1.515625 C 1.324219 -0.347656 1.8125 0.175781 3.03125 0.175781 C 3.34375 0.175781 3.816406 0.121094 4.199219 -0.0507812 L 4.6875 -0.714844 Z M 4.632812 -0.785156 "/></g></g></g><g fill="#000000" fill-opacity="1"><g transform="translate(199.917476, 276.182852)"><g><path d="M 3.675781 0.175781 C 5.539062 0.175781 6.761719 -1.203125 6.761719 -3.292969 C 6.761719 -5.261719 5.644531 -6.535156 3.695312 -6.535156 C 1.828125 -6.535156 0.59375 -5.15625 0.59375 -3.066406 C 0.59375 -1.011719 1.8125 0.175781 3.675781 0.175781 Z M 3.675781 -0.402344 C 2.335938 -0.402344 1.464844 -1.480469 1.464844 -3.152344 C 1.464844 -4.859375 2.335938 -5.957031 3.695312 -5.957031 C 5.019531 -5.957031 5.890625 -4.859375 5.890625 -3.171875 C 5.890625 -1.480469 5 -0.402344 3.675781 -0.402344 Z M 3.675781 -0.402344 "/></g></g></g><g fill="#000000" fill-opacity="1"><g transform="translate(209.531331, 276.182852)"><g><path d="M 2.335938 -0.417969 L 2.335938 -9.632812 L 0.402344 -9.320312 C 0.191406 -9.285156 0.0859375 -9.199219 0.0859375 -9.007812 L 0.105469 -8.921875 L 1.5 -8.921875 L 1.5 -0.558594 L 0.539062 -0.402344 C 0.347656 -0.367188 0.261719 -0.296875 0.261719 -0.105469 L 0.277344 0 L 3.222656 0 C 3.433594 0 3.484375 -0.0507812 3.535156 -0.277344 L 3.570312 -0.453125 Z M 2.335938 -0.417969 "/></g></g></g><g fill="#000000" fill-opacity="1"><g transform="translate(215.627558, 276.182852)"><g><path d="M 3.675781 0.175781 C 5.539062 0.175781 6.761719 -1.203125 6.761719 -3.292969 C 6.761719 -5.261719 5.644531 -6.535156 3.695312 -6.535156 C 1.828125 -6.535156 0.59375 -5.15625 0.59375 -3.066406 C 0.59375 -1.011719 1.8125 0.175781 3.675781 0.175781 Z M 3.675781 -0.402344 C 2.335938 -0.402344 1.464844 -1.480469 1.464844 -3.152344 C 1.464844 -4.859375 2.335938 -5.957031 3.695312 -5.957031 C 5.019531 -5.957031 5.890625 -4.859375 5.890625 -3.171875 C 5.890625 -1.480469 5 -0.402344 3.675781 -0.402344 Z M 3.675781 -0.402344 "/></g></g></g><g fill="#000000" fill-opacity="1"><g transform="translate(225.241413, 276.182852)"><g><path d="M 5.140625 -5.957031 C 4.722656 -6.324219 4.113281 -6.535156 3.34375 -6.535156 C 1.953125 -6.535156 0.820312 -5.628906 0.820312 -4.148438 C 0.820312 -3.292969 1.253906 -2.597656 1.984375 -2.230469 L 1.273438 -1.464844 C 1.203125 -1.308594 1.167969 -1.183594 1.167969 -1.011719 C 1.167969 -0.679688 1.324219 -0.382812 1.636719 -0.210938 C 0.871094 0.191406 0.382812 0.765625 0.382812 1.5 C 0.382812 2.769531 1.601562 3.46875 3.328125 3.46875 C 5.277344 3.46875 6.621094 2.527344 6.621094 1.011719 C 6.621094 -0.0703125 5.835938 -0.695312 4.460938 -0.695312 L 2.804688 -0.695312 C 2.246094 -0.695312 1.917969 -0.855469 1.917969 -1.273438 C 1.917969 -1.480469 2.054688 -1.65625 2.421875 -2.054688 C 2.699219 -1.96875 2.996094 -1.933594 3.328125 -1.933594 C 4.792969 -1.933594 5.871094 -2.839844 5.871094 -4.285156 C 5.871094 -4.808594 5.714844 -5.296875 5.417969 -5.664062 L 6.96875 -5.664062 L 6.96875 -6.5 Z M 3.34375 -2.472656 C 2.316406 -2.472656 1.636719 -3.171875 1.636719 -4.199219 C 1.636719 -5.261719 2.335938 -5.992188 3.34375 -5.992188 C 4.375 -5.992188 5.050781 -5.296875 5.050781 -4.234375 C 5.050781 -3.1875 4.355469 -2.472656 3.34375 -2.472656 Z M 4.285156 0.0351562 C 5.382812 0.0351562 5.855469 0.46875 5.855469 1.082031 C 5.855469 2.230469 4.824219 2.855469 3.328125 2.855469 C 2.160156 2.855469 1.132812 2.316406 1.132812 1.359375 C 1.132812 0.730469 1.464844 0.3125 2.039062 -0.0351562 C 2.195312 0.015625 2.386719 0.0351562 2.578125 0.0351562 Z M 4.285156 0.0351562 "/></g></g></g><g fill="#000000" fill-opacity="1"><g transform="translate(234.611474, 276.182852)"><g><path d="M 2.804688 -9.703125 L 1.53125 -7.421875 L 2.179688 -7.421875 L 3.746094 -9.703125 Z M 2.507812 -0.402344 L 2.507812 -6.445312 L 0.574219 -6.132812 C 0.367188 -6.097656 0.277344 -6.011719 0.277344 -5.820312 L 0.296875 -5.714844 L 1.671875 -5.714844 L 1.671875 -0.558594 L 0.714844 -0.402344 C 0.523438 -0.367188 0.4375 -0.296875 0.4375 -0.105469 L 0.453125 0 L 3.433594 0 C 3.640625 0 3.695312 -0.0507812 3.746094 -0.277344 L 3.78125 -0.4375 Z M 2.507812 -0.402344 "/></g></g></g><g fill="#000000" fill-opacity="1"><g transform="translate(240.881846, 276.182852)"><g><path d="M 5.46875 -0.539062 L 5.46875 -4.425781 C 5.46875 -5.871094 4.632812 -6.535156 3.242188 -6.535156 C 2.628906 -6.535156 1.953125 -6.394531 1.429688 -6.167969 L 0.941406 -5.417969 L 1.011719 -5.347656 C 1.671875 -5.695312 2.386719 -5.871094 3.082031 -5.871094 C 4.007812 -5.871094 4.632812 -5.4375 4.632812 -4.320312 L 4.632812 -3.257812 L 1.167969 -3.082031 C 0.835938 -2.683594 0.59375 -2.125 0.59375 -1.585938 C 0.59375 -0.503906 1.359375 0.175781 2.71875 0.175781 C 3.242188 0.175781 3.746094 0.0507812 4.148438 -0.191406 L 4.632812 -0.855469 C 4.667969 -0.503906 4.757812 -0.105469 4.808594 0.121094 L 6.394531 -0.121094 C 6.671875 -0.15625 6.777344 -0.261719 6.777344 -0.46875 L 6.761719 -0.539062 Z M 2.925781 -0.453125 C 1.917969 -0.453125 1.410156 -0.957031 1.410156 -1.707031 C 1.410156 -1.984375 1.480469 -2.316406 1.621094 -2.628906 L 4.632812 -2.628906 L 4.632812 -0.992188 C 4.148438 -0.660156 3.640625 -0.453125 2.925781 -0.453125 Z M 2.925781 -0.453125 "/></g></g></g><g fill="#000000" fill-opacity="1"><g transform="translate(100.233029, 296.432851)"><g><path d="M 9.914062 -9.234375 L 7.019531 -9.234375 C 6.792969 -9.234375 6.726562 -9.148438 6.671875 -8.902344 L 6.636719 -8.710938 L 8.015625 -8.761719 L 8.015625 -1.464844 L 2.683594 -9.234375 L 0.886719 -9.234375 C 0.660156 -9.234375 0.609375 -9.148438 0.558594 -8.902344 L 0.523438 -8.710938 L 1.8125 -8.761719 L 1.8125 -0.628906 L 0.785156 -0.46875 C 0.59375 -0.417969 0.523438 -0.3125 0.523438 -0.121094 L 0.539062 0 L 3.414062 0 C 3.660156 0 3.710938 -0.0859375 3.761719 -0.332031 L 3.796875 -0.523438 L 2.40625 -0.453125 L 2.40625 -7.996094 L 7.960938 0 L 8.625 0 L 8.625 -8.605469 L 9.652344 -8.761719 C 9.84375 -8.796875 9.929688 -8.902344 9.929688 -9.09375 Z M 9.914062 -9.234375 "/></g></g></g><g fill="#000000" fill-opacity="1"><g transform="translate(112.929157, 296.432851)"><g><path d="M 6.621094 -0.539062 L 6.621094 -6.445312 L 4.6875 -6.132812 C 4.476562 -6.097656 4.390625 -5.992188 4.390625 -5.835938 L 4.40625 -5.714844 L 5.785156 -5.714844 L 5.785156 -1.0625 C 5.226562 -0.695312 4.460938 -0.503906 3.78125 -0.503906 C 2.945312 -0.503906 2.230469 -0.941406 2.230469 -2.054688 L 2.230469 -6.445312 L 0.367188 -6.132812 C 0.175781 -6.097656 0.0703125 -6.027344 0.0703125 -5.820312 L 0.0859375 -5.714844 L 1.394531 -5.714844 L 1.394531 -1.953125 C 1.394531 -0.503906 2.300781 0.175781 3.5 0.175781 C 4.214844 0.175781 4.878906 -0.0351562 5.296875 -0.277344 L 5.785156 -0.886719 L 5.785156 0.121094 L 7.542969 -0.121094 C 7.824219 -0.15625 7.925781 -0.261719 7.925781 -0.46875 L 7.910156 -0.539062 Z M 6.621094 -0.539062 "/></g></g></g><g fill="#000000" fill-opacity="1"><g transform="translate(123.309229, 296.432851)"><g><path d="M 4.632812 -0.785156 C 4.148438 -0.539062 3.660156 -0.4375 3.257812 -0.4375 C 2.542969 -0.4375 2.160156 -0.75 2.160156 -1.65625 L 2.160156 -5.714844 L 4.597656 -5.714844 L 4.597656 -6.273438 L 2.160156 -6.273438 L 2.160156 -7.824219 L 1.847656 -7.824219 L 1.324219 -6.273438 L 0.367188 -6.132812 C 0.175781 -6.097656 0.0703125 -6.011719 0.0703125 -5.835938 L 0.0859375 -5.714844 L 1.324219 -5.714844 L 1.324219 -1.515625 C 1.324219 -0.347656 1.8125 0.175781 3.03125 0.175781 C 3.34375 0.175781 3.816406 0.121094 4.199219 -0.0507812 L 4.6875 -0.714844 Z M 4.632812 -0.785156 "/></g></g></g><g fill="#000000" fill-opacity="1"><g transform="translate(130.537371, 296.432851)"><g><path d="M 4.53125 -6.515625 C 3.972656 -6.515625 3.308594 -6.324219 2.996094 -6.0625 L 2.507812 -5.367188 L 2.507812 -6.445312 L 0.574219 -6.132812 C 0.367188 -6.097656 0.277344 -6.011719 0.277344 -5.820312 L 0.296875 -5.714844 L 1.671875 -5.714844 L 1.671875 -0.558594 L 0.714844 -0.402344 C 0.523438 -0.367188 0.4375 -0.296875 0.4375 -0.105469 L 0.453125 0 L 3.433594 0 C 3.640625 0 3.695312 -0.0507812 3.746094 -0.277344 L 3.78125 -0.4375 L 2.507812 -0.402344 L 2.507812 -5.210938 C 3.050781 -5.574219 3.761719 -5.730469 4.53125 -5.730469 Z M 4.53125 -6.515625 "/></g></g></g><g fill="#000000" fill-opacity="1"><g transform="translate(137.69585, 296.432851)"><g><path d="M 1.984375 -9.113281 L 1.203125 -8.328125 L 1.984375 -7.542969 L 2.753906 -8.328125 Z M 2.507812 -0.402344 L 2.507812 -6.445312 L 0.574219 -6.132812 C 0.367188 -6.097656 0.277344 -6.011719 0.277344 -5.820312 L 0.296875 -5.714844 L 1.671875 -5.714844 L 1.671875 -0.558594 L 0.714844 -0.402344 C 0.523438 -0.367188 0.4375 -0.296875 0.4375 -0.105469 L 0.453125 0 L 3.433594 0 C 3.640625 0 3.695312 -0.0507812 3.746094 -0.277344 L 3.78125 -0.4375 Z M 2.507812 -0.402344 "/></g></g></g><g fill="#000000" fill-opacity="1"><g transform="translate(143.966222, 296.432851)"><g><path d="M 5.609375 -0.855469 C 5.050781 -0.574219 4.460938 -0.4375 3.953125 -0.4375 C 2.4375 -0.4375 1.429688 -1.339844 1.429688 -3.101562 C 1.429688 -4.808594 2.335938 -5.957031 3.851562 -5.957031 C 4.234375 -5.957031 4.546875 -5.890625 4.878906 -5.785156 L 4.878906 -3.9375 L 4.964844 -3.921875 C 5.210938 -3.921875 5.3125 -4.007812 5.332031 -4.25 L 5.539062 -6.238281 C 5.035156 -6.445312 4.460938 -6.535156 3.832031 -6.535156 C 1.8125 -6.535156 0.59375 -5.105469 0.59375 -3.015625 C 0.59375 -0.992188 1.742188 0.175781 3.675781 0.175781 C 4.148438 0.175781 4.738281 0.0859375 5.175781 -0.121094 L 5.664062 -0.785156 Z M 5.609375 -0.855469 "/></g></g></g><g fill="#000000" fill-opacity="1"><g transform="translate(152.55265, 296.432851)"><g><path d="M 1.984375 -9.113281 L 1.203125 -8.328125 L 1.984375 -7.542969 L 2.753906 -8.328125 Z M 2.507812 -0.402344 L 2.507812 -6.445312 L 0.574219 -6.132812 C 0.367188 -6.097656 0.277344 -6.011719 0.277344 -5.820312 L 0.296875 -5.714844 L 1.671875 -5.714844 L 1.671875 -0.558594 L 0.714844 -0.402344 C 0.523438 -0.367188 0.4375 -0.296875 0.4375 -0.105469 L 0.453125 0 L 3.433594 0 C 3.640625 0 3.695312 -0.0507812 3.746094 -0.277344 L 3.78125 -0.4375 Z M 2.507812 -0.402344 "/></g></g></g><g fill="#000000" fill-opacity="1"><g transform="translate(158.823022, 296.432851)"><g><path d="M 5.46875 -9.703125 L 4.53125 -9.703125 L 3.257812 -7.421875 L 3.902344 -7.421875 Z M 3.675781 0.175781 C 5.539062 0.175781 6.761719 -1.203125 6.761719 -3.292969 C 6.761719 -5.261719 5.644531 -6.535156 3.695312 -6.535156 C 1.828125 -6.535156 0.59375 -5.15625 0.59375 -3.066406 C 0.59375 -1.011719 1.8125 0.175781 3.675781 0.175781 Z M 3.675781 -0.402344 C 2.335938 -0.402344 1.464844 -1.480469 1.464844 -3.152344 C 1.464844 -4.859375 2.335938 -5.957031 3.695312 -5.957031 C 5.019531 -5.957031 5.890625 -4.859375 5.890625 -3.171875 C 5.890625 -1.480469 5 -0.402344 3.675781 -0.402344 Z M 3.675781 -0.402344 "/></g></g></g><g fill="#000000" fill-opacity="1"><g transform="translate(168.436876, 296.432851)"><g><path d="M 6.96875 -4.40625 C 6.96875 -5.855469 6.132812 -6.535156 4.808594 -6.535156 C 4.058594 -6.535156 3.433594 -6.324219 2.996094 -6.082031 L 2.507812 -5.453125 L 2.507812 -6.445312 L 0.574219 -6.132812 C 0.367188 -6.097656 0.277344 -6.011719 0.277344 -5.820312 L 0.296875 -5.714844 L 1.671875 -5.714844 L 1.671875 -0.558594 L 0.714844 -0.402344 C 0.523438 -0.367188 0.4375 -0.296875 0.4375 -0.105469 L 0.453125 0 L 3.433594 0 C 3.640625 0 3.695312 -0.0507812 3.746094 -0.277344 L 3.78125 -0.4375 L 2.507812 -0.402344 L 2.507812 -5.277344 C 3.101562 -5.644531 3.816406 -5.855469 4.566406 -5.855469 C 5.488281 -5.855469 6.132812 -5.417969 6.132812 -4.285156 L 6.132812 -0.558594 L 5.191406 -0.402344 C 5 -0.367188 4.914062 -0.296875 4.914062 -0.105469 L 4.929688 0 L 7.925781 0 C 8.136719 0 8.1875 -0.0507812 8.242188 -0.277344 L 8.277344 -0.4375 L 6.96875 -0.402344 Z M 6.96875 -4.40625 "/></g></g></g><g fill="#000000" fill-opacity="1"><g transform="translate(179.060741, 296.432851)"><g/></g></g><g fill="#000000" fill-opacity="1"><g transform="translate(184.721623, 296.432851)"><g><path d="M 4.824219 -6.359375 C 4.597656 -6.359375 4.53125 -6.289062 4.496094 -6.082031 L 4.460938 -5.90625 L 5.714844 -5.921875 L 3.761719 -0.628906 L 1.898438 -5.921875 L 2.804688 -5.90625 C 3.03125 -5.90625 3.082031 -5.957031 3.136719 -6.183594 L 3.171875 -6.359375 L 0.140625 -6.359375 L 0.121094 -6.273438 C 0.121094 -6.0625 0.191406 -6.011719 0.402344 -5.957031 L 1.0625 -5.820312 L 3.207031 0 L 3.535156 0 L 2.003906 3.171875 L 2.824219 3.378906 L 6.339844 -5.820312 L 7.003906 -5.941406 C 7.160156 -5.976562 7.28125 -6.0625 7.28125 -6.273438 L 7.265625 -6.359375 Z M 4.824219 -6.359375 "/></g></g></g><g fill="#000000" fill-opacity="1"><g transform="translate(194.38772, 296.432851)"><g/></g></g><g fill="#000000" fill-opacity="1"><g transform="translate(200.048609, 296.432851)"><g><path d="M 12.089844 -8.761719 C 12.28125 -8.796875 12.371094 -8.902344 12.371094 -9.09375 L 12.351562 -9.234375 L 10.035156 -9.234375 L 6.445312 -2.734375 L 2.804688 -9.234375 L 0.886719 -9.234375 C 0.660156 -9.234375 0.609375 -9.148438 0.558594 -8.902344 L 0.523438 -8.710938 L 1.8125 -8.761719 L 1.8125 -0.628906 L 0.820312 -0.46875 C 0.609375 -0.4375 0.523438 -0.332031 0.523438 -0.140625 L 0.539062 0 L 3.398438 0 C 3.625 0 3.695312 -0.0703125 3.746094 -0.332031 L 3.78125 -0.523438 L 2.40625 -0.453125 L 2.40625 -8.152344 L 5.976562 -1.777344 L 6.535156 -1.777344 L 10.054688 -8.136719 L 10.054688 -0.660156 L 9.058594 -0.488281 C 8.832031 -0.453125 8.730469 -0.367188 8.730469 -0.121094 L 8.746094 0 L 11.988281 0 C 12.214844 0 12.28125 -0.0703125 12.335938 -0.332031 L 12.371094 -0.523438 L 10.941406 -0.46875 L 10.941406 -8.589844 Z M 12.089844 -8.761719 "/></g></g></g><g fill="#000000" fill-opacity="1"><g transform="translate(215.182698, 296.432851)"><g><path d="M 5.46875 -0.539062 L 5.46875 -4.425781 C 5.46875 -5.871094 4.632812 -6.535156 3.242188 -6.535156 C 2.628906 -6.535156 1.953125 -6.394531 1.429688 -6.167969 L 0.941406 -5.417969 L 1.011719 -5.347656 C 1.671875 -5.695312 2.386719 -5.871094 3.082031 -5.871094 C 4.007812 -5.871094 4.632812 -5.4375 4.632812 -4.320312 L 4.632812 -3.257812 L 1.167969 -3.082031 C 0.835938 -2.683594 0.59375 -2.125 0.59375 -1.585938 C 0.59375 -0.503906 1.359375 0.175781 2.71875 0.175781 C 3.242188 0.175781 3.746094 0.0507812 4.148438 -0.191406 L 4.632812 -0.855469 C 4.667969 -0.503906 4.757812 -0.105469 4.808594 0.121094 L 6.394531 -0.121094 C 6.671875 -0.15625 6.777344 -0.261719 6.777344 -0.46875 L 6.761719 -0.539062 Z M 2.925781 -0.453125 C 1.917969 -0.453125 1.410156 -0.957031 1.410156 -1.707031 C 1.410156 -1.984375 1.480469 -2.316406 1.621094 -2.628906 L 4.632812 -2.628906 L 4.632812 -0.992188 C 4.148438 -0.660156 3.640625 -0.453125 2.925781 -0.453125 Z M 2.925781 -0.453125 "/></g></g></g><g fill="#000000" fill-opacity="1"><g transform="translate(224.361214, 296.432851)"><g><path d="M 6.097656 -6.5 L 6.027344 -6.515625 L 5.488281 -6.148438 C 4.964844 -6.394531 4.40625 -6.550781 3.761719 -6.550781 C 1.757812 -6.550781 0.59375 -5.105469 0.59375 -2.875 C 0.59375 -1.011719 1.636719 0.175781 3.292969 0.175781 C 3.921875 0.175781 4.425781 0.015625 4.824219 -0.261719 L 5.261719 -0.90625 L 5.261719 2.753906 L 4.007812 2.910156 C 3.761719 2.945312 3.675781 3.015625 3.675781 3.207031 L 3.695312 3.308594 L 6.863281 3.308594 C 7.074219 3.308594 7.144531 3.242188 7.179688 3.03125 L 7.214844 2.855469 L 6.097656 2.890625 Z M 3.535156 -0.46875 C 2.230469 -0.46875 1.445312 -1.515625 1.445312 -2.925781 C 1.445312 -4.894531 2.316406 -5.957031 3.816406 -5.957031 C 4.320312 -5.957031 4.859375 -5.820312 5.261719 -5.59375 L 5.261719 -1.082031 C 4.757812 -0.679688 4.128906 -0.46875 3.535156 -0.46875 Z M 3.535156 -0.46875 "/></g></g></g><g fill="#000000" fill-opacity="1"><g transform="translate(233.975074, 296.432851)"><g><path d="M 6.621094 -0.539062 L 6.621094 -6.445312 L 4.6875 -6.132812 C 4.476562 -6.097656 4.390625 -5.992188 4.390625 -5.835938 L 4.40625 -5.714844 L 5.785156 -5.714844 L 5.785156 -1.0625 C 5.226562 -0.695312 4.460938 -0.503906 3.78125 -0.503906 C 2.945312 -0.503906 2.230469 -0.941406 2.230469 -2.054688 L 2.230469 -6.445312 L 0.367188 -6.132812 C 0.175781 -6.097656 0.0703125 -6.027344 0.0703125 -5.820312 L 0.0859375 -5.714844 L 1.394531 -5.714844 L 1.394531 -1.953125 C 1.394531 -0.503906 2.300781 0.175781 3.5 0.175781 C 4.214844 0.175781 4.878906 -0.0351562 5.296875 -0.277344 L 5.785156 -0.886719 L 5.785156 0.121094 L 7.542969 -0.121094 C 7.824219 -0.15625 7.925781 -0.261719 7.925781 -0.46875 L 7.910156 -0.539062 Z M 6.621094 -0.539062 "/></g></g></g><g fill="#000000" fill-opacity="1"><g transform="translate(244.355151, 296.432851)"><g><path d="M 1.984375 -9.113281 L 1.203125 -8.328125 L 1.984375 -7.542969 L 2.753906 -8.328125 Z M 2.507812 -0.402344 L 2.507812 -6.445312 L 0.574219 -6.132812 C 0.367188 -6.097656 0.277344 -6.011719 0.277344 -5.820312 L 0.296875 -5.714844 L 1.671875 -5.714844 L 1.671875 -0.558594 L 0.714844 -0.402344 C 0.523438 -0.367188 0.4375 -0.296875 0.4375 -0.105469 L 0.453125 0 L 3.433594 0 C 3.640625 0 3.695312 -0.0507812 3.746094 -0.277344 L 3.78125 -0.4375 Z M 2.507812 -0.402344 "/></g></g></g><g fill="#000000" fill-opacity="1"><g transform="translate(250.625528, 296.432851)"><g><path d="M 2.335938 -0.417969 L 2.335938 -9.632812 L 0.402344 -9.320312 C 0.191406 -9.285156 0.0859375 -9.199219 0.0859375 -9.007812 L 0.105469 -8.921875 L 1.5 -8.921875 L 1.5 -0.558594 L 0.539062 -0.402344 C 0.347656 -0.367188 0.261719 -0.296875 0.261719 -0.105469 L 0.277344 0 L 3.222656 0 C 3.433594 0 3.484375 -0.0507812 3.535156 -0.277344 L 3.570312 -0.453125 Z M 2.335938 -0.417969 "/></g></g></g><g fill="#000000" fill-opacity="1"><g transform="translate(256.721761, 296.432851)"><g><path d="M 2.335938 -0.417969 L 2.335938 -9.632812 L 0.402344 -9.320312 C 0.191406 -9.285156 0.0859375 -9.199219 0.0859375 -9.007812 L 0.105469 -8.921875 L 1.5 -8.921875 L 1.5 -0.558594 L 0.539062 -0.402344 C 0.347656 -0.367188 0.261719 -0.296875 0.261719 -0.105469 L 0.277344 0 L 3.222656 0 C 3.433594 0 3.484375 -0.0507812 3.535156 -0.277344 L 3.570312 -0.453125 Z M 2.335938 -0.417969 "/></g></g></g><g fill="#000000" fill-opacity="1"><g transform="translate(262.817994, 296.432851)"><g><path d="M 5.46875 -0.539062 L 5.46875 -4.425781 C 5.46875 -5.871094 4.632812 -6.535156 3.242188 -6.535156 C 2.628906 -6.535156 1.953125 -6.394531 1.429688 -6.167969 L 0.941406 -5.417969 L 1.011719 -5.347656 C 1.671875 -5.695312 2.386719 -5.871094 3.082031 -5.871094 C 4.007812 -5.871094 4.632812 -5.4375 4.632812 -4.320312 L 4.632812 -3.257812 L 1.167969 -3.082031 C 0.835938 -2.683594 0.59375 -2.125 0.59375 -1.585938 C 0.59375 -0.503906 1.359375 0.175781 2.71875 0.175781 C 3.242188 0.175781 3.746094 0.0507812 4.148438 -0.191406 L 4.632812 -0.855469 C 4.667969 -0.503906 4.757812 -0.105469 4.808594 0.121094 L 6.394531 -0.121094 C 6.671875 -0.15625 6.777344 -0.261719 6.777344 -0.46875 L 6.761719 -0.539062 Z M 2.925781 -0.453125 C 1.917969 -0.453125 1.410156 -0.957031 1.410156 -1.707031 C 1.410156 -1.984375 1.480469 -2.316406 1.621094 -2.628906 L 4.632812 -2.628906 L 4.632812 -0.992188 C 4.148438 -0.660156 3.640625 -0.453125 2.925781 -0.453125 Z M 2.925781 -0.453125 "/></g></g></g><g fill="#000000" fill-opacity="1"><g transform="translate(271.99651, 296.432851)"><g><path d="M 1.792969 -9.113281 L 1.011719 -8.328125 L 1.792969 -7.542969 L 2.5625 -8.328125 Z M 0.140625 -5.714844 L 1.53125 -5.714844 L 1.53125 -0.347656 C 1.53125 1.113281 1.273438 1.847656 0.226562 3.207031 L 0.539062 3.433594 C 1.324219 2.648438 1.847656 2.039062 2.144531 1.339844 C 2.300781 0.871094 2.371094 0.367188 2.371094 -0.277344 L 2.371094 -6.445312 L 0.417969 -6.132812 C 0.210938 -6.097656 0.121094 -6.011719 0.121094 -5.835938 Z M 0.140625 -5.714844 "/></g></g></g><g fill="#000000" fill-opacity="1"><g transform="translate(277.883786, 296.432851)"><g><path d="M 5.992188 -3.257812 C 6.011719 -3.449219 6.027344 -3.710938 6.027344 -3.921875 C 6.027344 -5.503906 5.15625 -6.535156 3.570312 -6.535156 C 1.828125 -6.535156 0.59375 -5.105469 0.59375 -3.015625 C 0.59375 -1.0625 1.726562 0.175781 3.605469 0.175781 C 4.269531 0.175781 4.894531 0.0507812 5.261719 -0.121094 L 5.765625 -0.820312 L 5.714844 -0.886719 C 5.175781 -0.609375 4.460938 -0.453125 3.867188 -0.453125 C 2.335938 -0.453125 1.445312 -1.480469 1.445312 -3.101562 L 1.445312 -3.257812 Z M 3.519531 -5.957031 C 4.652344 -5.957031 5.210938 -5.121094 5.210938 -3.886719 L 5.210938 -3.851562 L 1.480469 -3.695312 C 1.636719 -5.085938 2.386719 -5.957031 3.519531 -5.957031 Z M 3.519531 -5.957031 "/></g></g></g><g fill="#000000" fill-opacity="1"><g transform="translate(286.865829, 296.432851)"><g/></g></g><g fill="#000000" fill-opacity="1"><g transform="translate(109.656597, 189.951758)"><g><path d="M 102.601562 -82.839844 L 102.601562 -84.011719 L 82.109375 -84.011719 L 55.03125 -13.613281 L 26.199219 -84.011719 L 4.976562 -84.011719 L 4.976562 -82.839844 L 13.464844 -82.253906 L 13.464844 -1.757812 L 4.976562 -1.171875 L 4.976562 0 L 24.003906 0 L 24.003906 -1.171875 L 15.660156 -1.757812 L 15.660156 -79.765625 L 46.542969 -4.390625 L 53.863281 -4.390625 L 82.988281 -80.058594 L 82.988281 -1.757812 L 74.5 -1.171875 L 74.5 0 L 102.601562 0 L 102.601562 -1.171875 L 94.109375 -1.757812 L 94.109375 -82.253906 Z M 102.601562 -82.839844 "/></g></g></g></svg>